<?xml version="1.0" encoding="utf-8"?>
<!-- Generator: Adobe Illustrator 28.0.0, SVG Export Plug-In . SVG Version: 6.00 Build 0)  -->
<svg version="1.1" id="Слой_1" xmlns="http://www.w3.org/2000/svg" xmlns:xlink="http://www.w3.org/1999/xlink" x="0px" y="0px"
	 viewBox="0 0 1366 768" style="enable-background:new 0 0 1366 768;" xml:space="preserve">
<style type="text/css">
	.st0{fill:#C69C6D;}
	.st1{fill:#CCCCCC;}
	.st2{fill:#B3B3B3;}
	.st3{fill:#00FF00;}
	.st4{fill:#FF0000;}
	.st5{fill:none;stroke:#000000;stroke-miterlimit:10;}
	.st6{fill:#C69C6D;stroke:#000000;stroke-miterlimit:10;}
</style>
<g>
	<rect x="0.5" y="0.5" class="st0" width="1365" height="767"/>
	<path d="M1365,1v766H1V1H1365 M1366,0H0v768h1366V0L1366,0z"/>
</g>
<g>
	<rect x="439.5" y="43.5" class="st1" width="488" height="488"/>
	<path d="M927,44v487H440V44H927 M928,43H439v489h489V43L928,43z"/>
</g>
<g>
	<rect x="483.5" y="87.5" class="st2" width="400" height="400"/>
	<path d="M883,88v399H484V88H883 M884,87H483v401h401V87L884,87z"/>
</g>
<g>
	<rect x="492.5" y="96.5" class="st3" width="382" height="382"/>
	<path d="M874,97v381H493V97H874 M875,96H492v383h383V96L875,96z"/>
</g>
<g>
	<g id="XMLID_00000148644914466772296810000001412681591972844972_">
		<g>
			<path class="st4" d="M425.5,249.9c17.4-53.3,21.9-143.4,7.7-267.2c38.9,1.8,76.4,3.3,110.6,4.4c4.2,35.4,8.3,100.2-4.3,174
				c-19,111.5-133,206.5-171,229.5c-33.2,20.1-77.6,32.7-94,25l0-0.1c1.5-0.2,3-0.5,4.5-0.8C357.7,412.8,405.4,311.6,425.5,249.9z"
				/>
			<path class="st4" d="M433.2-17.4c14.2,123.8,9.7,213.9-7.7,267.2c-20.1,61.7-67.8,163-146.5,164.7c49.1-10.9,89.2-81.4,104.5-166
				c10.7-59.4,21.8-167.4,4.5-268C403.3-18.8,418.3-18,433.2-17.4z"/>
			<path class="st4" d="M277.2,374.5c-0.3-41.2-2.3-199.2-7.3-400c39.1,2.1,79,4.2,118.1,6.1c17.3,100.6,6.2,208.6-4.5,268
				c-15.3,84.7-55.4,155.1-104.5,166c-1.8,0-3.6,0-5.5,0l-0.5-0.1C275.7,395.2,277.2,381.1,277.2,374.5z"/>
			<path class="st4" d="M274.5,415.5c-0.8,2,82.8,13.6,130,131c45,112,48.7,189,53.3,236.8c-13.8,1.5-32.6,3.1-59.8,4.5
				c4.6-50.3,11.2-142.6-12.5-234.2c-19-73.5-89-123.1-107.5-135.1c-1.8-1.7-3.2-2.2-4.4-2.8c0,0-0.1-0.1-0.1-0.1
				c0.3,0,0.6-0.1,1-0.1L274.5,415.5z"/>
			<path class="st4" d="M385.5,553.5c23.7,91.6,17.1,183.9,12.5,234.2c-23.2,1.2-52.6,2.1-90.2,2.7c15.2-75.1,21.5-207.8,14.7-236.9
				C297.6,447.9,285,424.8,278,418.4C296.5,430.4,366.5,480,385.5,553.5z"/>
			<path class="st4" d="M272.3,419.4c0.2-1.7,0.5-3.4,0.7-5l0.5,0.1c1.8,0.1,3.7,0.1,5.5,0c-1.5,0.3-3,0.6-4.5,0.8
				c-0.3,0.1-0.7,0.1-1,0.1c0,0,0.1,0,0.1,0.1c0.4,0.3,2,1.2,4.4,2.8c7,6.4,19.6,29.5,44.5,135.1c6.9,29.1,0.5,161.8-14.7,236.9
				c-28.5,0.4-61.7,0.5-100.5,0.3C220.8,718.6,258.7,514,272.3,419.4z"/>
		</g>
		<g>
			<path class="st5" d="M539.5-41.5c0,0,2.2,10.4,4.3,28.5c4.2,35.4,8.3,100.2-4.3,174c-19,111.5-133,206.5-171,229.5
				c-33.2,20.1-77.6,32.7-94,25c-0.8,2,82.8,13.6,130,131c45,112,48.7,189,53.3,236.8c0.2,2.5,0.5,4.9,0.7,7.2"/>
			<path class="st5" d="M425.5-75.5c3,20.1,5.6,39.5,7.7,58.1c14.2,123.8,9.7,213.9-7.7,267.2c-20.1,61.7-67.8,163-146.5,164.7
				c-1.8,0-3.6,0-5.5,0"/>
			<path class="st5" d="M268.5-81.5c0.5,19,1,37.6,1.4,56c5,200.8,7,358.8,7.3,400c0,6.6-1.5,20.7-4.2,39.9c-0.2,1.6-0.5,3.3-0.7,5
				c-13.6,94.6-51.5,299.2-64.9,371.3c-3,16.3-4.8,25.8-4.8,25.8"/>
			<path class="st5" d="M273.5,415.5c0.3,0,0.6-0.1,1-0.1c1.5-0.2,3-0.5,4.5-0.8c49.1-10.9,89.2-81.4,104.5-166
				c10.7-59.4,21.8-167.4,4.5-268c-2.4-14.3-5.5-28.4-9.1-42.2"/>
			<path class="st5" d="M397.1,797.8c0.3-3.1,0.6-6.5,0.9-10.1c4.6-50.3,11.2-142.6-12.5-234.2c-19-73.5-89-123.1-107.5-135.1
				c-2.4-1.6-4-2.5-4.4-2.8"/>
			<path class="st5" d="M299.5,822.5c3-8.6,5.8-19.5,8.3-32.1c15.2-75.1,21.5-207.8,14.7-236.9C297.6,447.9,285,424.8,278,418.4
				c-1.8-1.7-3.2-2.2-4.4-2.8c0,0-0.1-0.1-0.1-0.1"/>
			<path class="st5" d="M239.9-27.2c10,0.5,20,1.1,30.1,1.6c39.1,2.1,79,4.2,118.1,6.1c15.2,0.7,30.3,1.4,45.2,2.1
				c38.9,1.8,76.4,3.3,110.6,4.4c49.2,1.6,91.8,2.2,122.7,1.5"/>
			<path class="st5" d="M176.9,790.5c10.5,0.1,20.7,0.2,30.5,0.2c38.8,0.2,72,0.1,100.5-0.3c37.6-0.5,66.9-1.5,90.2-2.7
				c27.2-1.3,46-3,59.8-4.5c30.7-3.3,36.4-6,53.7-3.8"/>
		</g>
	</g>
</g>
<g>
	<g id="XMLID_00000103975993481601085830000017087717677954389135_">
		<g>
			<path class="st4" d="M783-15c-4.2,35.4-8.3,100.2,4.3,174c19,111.5,133,206.5,171,229.5c33.2,20.1,77.7,32.7,94,25l0-0.1
				c-1.5-0.2-3-0.5-4.5-0.8c-78.7-1.7-126.4-103-146.5-164.7c-17.4-53.3-21.9-143.4-7.7-267.2C854.7-17.6,817.3-16.1,783-15z"/>
			<path class="st4" d="M922.4,544.5c-45,112-48.7,189-53.3,236.8c13.8,1.5,32.6,3.1,59.8,4.5c-4.6-50.3-11.2-142.6,12.5-234.2
				c19-73.5,88.9-123.1,107.5-135.1c1.8-1.7,3.2-2.2,4.4-2.8c0,0,0.1-0.1,0.1-0.1c-0.3,0-0.7-0.1-1-0.1l0,0.1
				C1053.2,415.5,969.6,427.1,922.4,544.5z"/>
			<path class="st4" d="M893.7-19.4c-14.2,123.8-9.7,213.9,7.7,267.2c20.1,61.7,67.8,163,146.5,164.7
				c-49.1-10.9-89.2-81.4-104.5-166c-10.7-59.4-21.8-167.4-4.5-268C923.6-20.8,908.5-20,893.7-19.4z"/>
			<path class="st4" d="M941.4,551.5c-23.7,91.6-17.1,183.9-12.5,234.2c23.2,1.2,52.6,2.1,90.2,2.7
				c-15.2-75.1-21.5-207.8-14.7-236.9c24.8-105.6,37.5-128.7,44.5-135.1C1030.3,428.4,960.4,478,941.4,551.5z"/>
			<path class="st4" d="M938.8-21.5c-17.3,100.6-6.2,208.6,4.5,268c15.3,84.7,55.4,155.1,104.5,166c1.8,0,3.6,0,5.5,0l0.5-0.1
				c-2.7-19.3-4.3-33.4-4.2-39.9c0.3-41.2,2.3-199.2,7.3-400C1017.8-25.5,977.9-23.4,938.8-21.5z"/>
			<path class="st4" d="M1004.4,551.5c-6.9,29.1-0.5,161.8,14.7,236.9c28.5,0.4,61.7,0.5,100.5,0.3
				c-13.5-72.1-51.3-276.7-64.9-371.3c-0.2-1.7-0.5-3.4-0.7-5l-0.5,0.1c-1.8,0.1-3.7,0.1-5.5,0c1.5,0.3,3,0.6,4.5,0.8
				c0.3,0.1,0.7,0.1,1,0.1c0,0-0.1,0-0.1,0.1c-0.4,0.3-2,1.2-4.4,2.8C1041.8,422.8,1029.2,445.9,1004.4,551.5z"/>
		</g>
		<g>
			<path class="st5" d="M787.4-43.5c0,0-2.2,10.4-4.3,28.5c-4.2,35.4-8.3,100.2,4.3,174c19,111.5,133,206.5,171,229.5
				c33.2,20.1,77.7,32.7,94,25c0.8,2-82.8,13.6-130,131c-45,112-48.7,189-53.3,236.8c-0.2,2.5-0.5,4.9-0.7,7.2"/>
			<path class="st5" d="M901.4-77.5c-3,20.1-5.6,39.5-7.7,58.1c-14.2,123.8-9.7,213.9,7.7,267.2c20.1,61.7,67.8,163,146.5,164.7
				c1.8,0,3.6,0,5.5,0"/>
			<path class="st5" d="M1058.4-83.5c-0.5,19-1,37.6-1.4,56c-4.9,200.8-7,358.8-7.3,400c0,6.6,1.5,20.7,4.2,39.9
				c0.2,1.6,0.5,3.3,0.7,5c13.6,94.6,51.5,299.2,64.9,371.3c3,16.3,4.8,25.8,4.8,25.8"/>
			<path class="st5" d="M1053.4,413.5c-0.3,0-0.7-0.1-1-0.1c-1.5-0.2-3-0.5-4.5-0.8c-49.1-10.9-89.2-81.4-104.5-166
				c-10.7-59.4-21.8-167.4-4.5-268c2.4-14.3,5.5-28.4,9.1-42.2"/>
			<path class="st5" d="M929.8,795.8c-0.3-3.1-0.6-6.5-0.9-10.1c-4.6-50.3-11.2-142.6,12.5-234.2c19-73.5,88.9-123.1,107.5-135.1
				c2.4-1.6,4-2.5,4.4-2.8"/>
			<path class="st5" d="M1027.4,820.5c-3-8.6-5.8-19.5-8.3-32.1c-15.2-75.1-21.5-207.8-14.7-236.9c24.8-105.6,37.5-128.7,44.5-135.1
				c1.8-1.7,3.2-2.2,4.4-2.8c0,0,0.1-0.1,0.1-0.1"/>
			<path class="st5" d="M1087-29.2c-10,0.5-20,1.1-30.1,1.6c-39.1,2.1-79,4.2-118.1,6.1c-15.2,0.7-30.3,1.4-45.2,2.1
				c-39,1.8-76.4,3.3-110.6,4.4c-49.2,1.6-91.8,2.2-122.7,1.5"/>
			<path class="st5" d="M1150,788.5c-10.5,0.1-20.7,0.2-30.5,0.2c-38.8,0.2-72,0.1-100.5-0.3c-37.5-0.5-66.9-1.5-90.2-2.7
				c-27.2-1.3-46-3-59.8-4.5c-30.7-3.3-36.4-6-53.7-3.8"/>
		</g>
	</g>
</g>
<g>
	<polygon class="st0" points="407.2,767.5 258.6,554.5 1109.4,554.5 1258,767.5 	"/>
	<path d="M1109.2,555l147.9,212H407.5L259.5,555H1109.2 M1109.7,554H257.6l149.3,214H1259L1109.7,554L1109.7,554z"/>
</g>
<polyline class="st6" points="1110.1,554 258,554 108.7,768 960.8,768 "/>
<g>
	<g>
		<ellipse class="st4" cx="665.5" cy="655.5" rx="81" ry="30"/>
		<path d="M665.5,626c21.7,0,42,3.2,57.3,8.9c14.8,5.5,23.2,13,23.2,20.6s-8.5,15.1-23.2,20.6c-15.3,5.7-35.6,8.9-57.3,8.9
			s-42-3.2-57.3-8.9c-14.8-5.5-23.2-13-23.2-20.6s8.5-15.1,23.2-20.6C623.5,629.2,643.8,626,665.5,626 M665.5,625
			c-45,0-81.5,13.7-81.5,30.5s36.5,30.5,81.5,30.5s81.5-13.7,81.5-30.5S710.5,625,665.5,625L665.5,625z"/>
	</g>
	<g>
		<ellipse class="st4" cx="665.5" cy="651.6" rx="81" ry="30"/>
		<path d="M665.5,622.1c21.7,0,42,3.2,57.3,8.9c14.8,5.5,23.2,13,23.2,20.6s-8.5,15.1-23.2,20.6c-15.3,5.7-35.6,8.9-57.3,8.9
			s-42-3.2-57.3-8.9c-14.8-5.5-23.2-13-23.2-20.6s8.5-15.1,23.2-20.6C623.5,625.3,643.8,622.1,665.5,622.1 M665.5,621.1
			c-45,0-81.5,13.7-81.5,30.5s36.5,30.5,81.5,30.5s81.5-13.7,81.5-30.5S710.5,621.1,665.5,621.1L665.5,621.1z"/>
	</g>
	<g>
		<ellipse class="st4" cx="665.5" cy="647.8" rx="81" ry="30"/>
		<path d="M665.5,618.2c21.7,0,42,3.2,57.3,8.9c14.8,5.5,23.2,13,23.2,20.6s-8.5,15.1-23.2,20.6c-15.3,5.7-35.6,8.9-57.3,8.9
			s-42-3.2-57.3-8.9c-14.8-5.5-23.2-13-23.2-20.6s8.5-15.1,23.2-20.6C623.5,621.4,643.8,618.2,665.5,618.2 M665.5,617.2
			c-45,0-81.5,13.7-81.5,30.5s36.5,30.5,81.5,30.5s81.5-13.7,81.5-30.5S710.5,617.2,665.5,617.2L665.5,617.2z"/>
	</g>
	<g>
		<ellipse class="st4" cx="665.5" cy="643.9" rx="81" ry="30"/>
		<path d="M665.5,614.4c21.7,0,42,3.2,57.3,8.9c14.8,5.5,23.2,13,23.2,20.6s-8.5,15.1-23.2,20.6c-15.3,5.7-35.6,8.9-57.3,8.9
			s-42-3.2-57.3-8.9c-14.8-5.5-23.2-13-23.2-20.6s8.5-15.1,23.2-20.6C623.5,617.5,643.8,614.4,665.5,614.4 M665.5,613.4
			c-45,0-81.5,13.7-81.5,30.5s36.5,30.5,81.5,30.5s81.5-13.7,81.5-30.5S710.5,613.4,665.5,613.4L665.5,613.4z"/>
	</g>
	<g>
		<ellipse class="st4" cx="665.5" cy="640" rx="81" ry="30"/>
		<path d="M665.5,610.5c21.7,0,42,3.2,57.3,8.9c14.8,5.5,23.2,13,23.2,20.6s-8.5,15.1-23.2,20.6c-15.3,5.7-35.6,8.9-57.3,8.9
			s-42-3.2-57.3-8.9c-14.8-5.5-23.2-13-23.2-20.6s8.5-15.1,23.2-20.6C623.5,613.7,643.8,610.5,665.5,610.5 M665.5,609.5
			c-45,0-81.5,13.7-81.5,30.5s36.5,30.5,81.5,30.5S747,656.8,747,640S710.5,609.5,665.5,609.5L665.5,609.5z"/>
	</g>
	<g>
		<ellipse class="st4" cx="665.5" cy="636.1" rx="81" ry="30"/>
		<path d="M665.5,606.6c21.7,0,42,3.2,57.3,8.9c14.8,5.5,23.2,13,23.2,20.6s-8.5,15.1-23.2,20.6c-15.3,5.7-35.6,8.9-57.3,8.9
			s-42-3.2-57.3-8.9c-14.8-5.5-23.2-13-23.2-20.6s8.5-15.1,23.2-20.6C623.5,609.8,643.8,606.6,665.5,606.6 M665.5,605.6
			c-45,0-81.5,13.7-81.5,30.5s36.5,30.5,81.5,30.5S747,653,747,636.1S710.5,605.6,665.5,605.6L665.5,605.6z"/>
	</g>
	<g>
		<ellipse class="st4" cx="665.5" cy="632.2" rx="81" ry="30"/>
		<path d="M665.5,602.8c21.7,0,42,3.2,57.3,8.9c14.8,5.5,23.2,13,23.2,20.6s-8.5,15.1-23.2,20.6c-15.3,5.7-35.6,8.9-57.3,8.9
			s-42-3.2-57.3-8.9c-14.8-5.5-23.2-13-23.2-20.6s8.5-15.1,23.2-20.6C623.5,605.9,643.8,602.8,665.5,602.8 M665.5,601.8
			c-45,0-81.5,13.7-81.5,30.5s36.5,30.5,81.5,30.5s81.5-13.7,81.5-30.5S710.5,601.8,665.5,601.8L665.5,601.8z"/>
	</g>
	<g>
		<ellipse class="st4" cx="665.5" cy="628.4" rx="81" ry="30"/>
		<path d="M665.5,598.9c21.7,0,42,3.2,57.3,8.9c14.8,5.5,23.2,13,23.2,20.6s-8.5,15.1-23.2,20.6c-15.3,5.7-35.6,8.9-57.3,8.9
			s-42-3.2-57.3-8.9c-14.8-5.5-23.2-13-23.2-20.6s8.5-15.1,23.2-20.6C623.5,602,643.8,598.9,665.5,598.9 M665.5,597.9
			c-45,0-81.5,13.7-81.5,30.5s36.5,30.5,81.5,30.5s81.5-13.7,81.5-30.5S710.5,597.9,665.5,597.9L665.5,597.9z"/>
	</g>
	<g>
		<ellipse class="st4" cx="665.5" cy="624.5" rx="81" ry="30"/>
		<path d="M665.5,595c21.7,0,42,3.2,57.3,8.9c14.8,5.5,23.2,13,23.2,20.6s-8.5,15.1-23.2,20.6c-15.3,5.7-35.6,8.9-57.3,8.9
			s-42-3.2-57.3-8.9c-14.8-5.5-23.2-13-23.2-20.6s8.5-15.1,23.2-20.6C623.5,598.2,643.8,595,665.5,595 M665.5,594
			c-45,0-81.5,13.7-81.5,30.5s36.5,30.5,81.5,30.5s81.5-13.7,81.5-30.5S710.5,594,665.5,594L665.5,594z"/>
	</g>
</g>
</svg>
